<svg id="visual" viewBox="0 0 1200 600" width="1200" height="600" xmlns="http://www.w3.org/2000/svg" xmlns:xlink="http://www.w3.org/1999/xlink" version="1.1"><path d="M0 115L109 43L218 85L327 67L436 67L545 115L655 91L764 97L873 109L982 49L1091 55L1200 61L1200 0L1091 0L982 0L873 0L764 0L655 0L545 0L436 0L327 0L218 0L109 0L0 0Z" fill="#00cc8e"></path><path d="M0 163L109 163L218 145L327 223L436 169L545 247L655 211L764 145L873 241L982 175L1091 229L1200 127L1200 59L1091 53L982 47L873 107L764 95L655 89L545 113L436 65L327 65L218 83L109 41L0 113Z" fill="#00b98a"></path><path d="M0 367L109 343L218 235L327 409L436 439L545 433L655 337L764 289L873 409L982 253L1091 397L1200 295L1200 125L1091 227L982 173L873 239L764 143L655 209L545 245L436 167L327 221L218 143L109 161L0 161Z" fill="#00a784"></path><path d="M0 529L109 505L218 511L327 499L436 565L545 517L655 541L764 511L873 541L982 499L1091 541L1200 565L1200 293L1091 395L982 251L873 407L764 287L655 335L545 431L436 437L327 407L218 233L109 341L0 365Z" fill="#00957c"></path><path d="M0 601L109 601L218 601L327 601L436 601L545 601L655 601L764 601L873 601L982 601L1091 601L1200 601L1200 563L1091 539L982 497L873 539L764 509L655 539L545 515L436 563L327 497L218 509L109 503L0 527Z" fill="#038373"></path></svg>